<?xml version="1.0" standalone="no"?>
<!DOCTYPE svg PUBLIC "-//W3C//DTD SVG 20010904//EN"
 "http://www.w3.org/TR/2001/REC-SVG-20010904/DTD/svg10.dtd">
<svg version="1.0" xmlns="http://www.w3.org/2000/svg"
 width="360.000000pt" height="360.000000pt" viewBox="0 0 360.000000 360.000000"
 preserveAspectRatio="xMidYMid meet">
<metadata>
Created by potrace 1.14, written by Peter Selinger 2001-2017
</metadata>
<g transform="translate(0.000000,360.000000) scale(0.100000,-0.100000)"
fill="#000000" stroke="none">
<path d="M2327 3477 c-11 -109 -79 -234 -213 -392 -73 -85 -232 -245 -244
-245 -4 0 -25 21 -46 48 -114 141 -296 306 -469 424 -105 72 -291 175 -300
166 -2 -2 2 -28 10 -58 21 -76 72 -342 81 -415 3 -33 8 -69 10 -80 2 -10 6
-73 10 -140 3 -66 7 -137 8 -158 2 -20 -2 -41 -9 -47 -25 -21 -151 -29 -436
-27 l-297 2 14 -25 c8 -14 46 -74 86 -135 104 -160 288 -466 288 -479 0 -6
-62 -52 -138 -103 -75 -50 -184 -124 -242 -163 -58 -40 -123 -80 -145 -90 -27
-12 -35 -20 -25 -23 8 -3 53 -19 100 -36 382 -134 490 -177 490 -194 0 -7 -88
-99 -197 -205 -185 -180 -197 -194 -179 -207 29 -21 125 -51 286 -89 l145 -34
-3 -28 c-4 -32 -16 -73 -56 -178 -14 -37 -26 -71 -26 -73 0 -6 151 3 298 18
57 6 105 9 108 6 2 -2 -5 -33 -15 -68 -25 -79 -38 -179 -24 -179 6 0 35 5 64
11 30 6 65 12 79 15 14 2 46 9 72 15 l48 11 67 -60 c164 -143 309 -206 478
-206 114 0 177 15 290 69 102 49 197 117 271 196 28 30 68 66 90 80 55 37 96
77 133 129 29 40 36 44 67 41 40 -3 42 4 12 46 -20 25 -22 40 -20 97 l4 66 46
1 c91 1 91 5 -2 104 -47 50 -85 95 -86 100 0 6 9 28 20 50 11 22 20 46 20 55
0 25 164 120 285 164 18 6 16 9 -15 28 -48 29 -144 92 -150 98 -3 3 -20 16
-38 29 -50 35 -102 109 -102 145 0 77 121 228 268 333 60 44 75 62 50 64 -87
5 -257 76 -338 140 -99 78 -101 52 22 297 107 215 183 390 174 400 -3 2 -31
-8 -63 -23 -74 -35 -216 -76 -367 -105 -100 -20 -119 -21 -127 -9 -13 21 -11
86 6 154 27 114 16 280 -31 470 -28 110 -69 234 -83 248 -4 4 -11 -16 -14 -46z
m33 -39 c0 -5 -4 -8 -10 -8 -5 0 -10 10 -10 23 0 18 2 19 10 7 5 -8 10 -18 10
-22z m451 -2485 c13 -16 12 -17 -3 -4 -10 7 -18 15 -18 17 0 8 8 3 21 -13z
m48 -346 c6 -8 8 -16 5 -20 -10 -9 -34 4 -34 19 0 18 14 18 29 1z"/>
</g>
</svg>
